inDegrees=yes
name=ik_lifting_orientations
DataType=double
version=3
OpenSimVersion=4.5-2024-01-10-34fd6af
endheader
time	pelvis_tilt	pelvis_list	pelvis_rotation	pelvis_tx	pelvis_ty	pelvis_tz	hip_flexion_r	hip_adduction_r	hip_rotation_r	knee_angle_r	knee_angle_r_beta	ankle_angle_r	subtalar_angle_r	mtp_angle_r	hip_flexion_l	hip_adduction_l	hip_rotation_l	knee_angle_l	knee_angle_l_beta	ankle_angle_l	subtalar_angle_l	mtp_angle_l	lumbar_extension	lumbar_bending	lumbar_rotation	arm_flex_r	arm_add_r	arm_rot_r	elbow_flex_r	pro_sup_r	wrist_flex_r	wrist_dev_r	arm_flex_l	arm_add_l	arm_rot_l	elbow_flex_l	pro_sup_l	wrist_flex_l	wrist_dev_l
1.11	3.619112626446037	-2.620919188690874	-104.0871412057165	0	0.9399999998679526	0	45.40776022639852	-10.33353402056962	0	60.42434157148096	1.054603708772027	-5.100867186862555	0	0	45.40776022639852	-10.33353402056962	0	60.42434157148096	1.054603708772027	-5.100867186862555	0	0	-1.483812173092453	-5.128418196011649	17.50251417455029	1.759317010355242	15.37109069397557	-6.200178526328365	149.7390286399108	1.116900683105363	0	0	0	-11.42147809996192	0	88.92209311399165	1.116900683105363	0	0
1.12	3.019801638485185	-2.216077396555855	-105.0028460739268	0	0.9399999998679526	0	45.40470011444594	-10.32764501515892	0	60.42115352204306	1.05454806681262	-5.098748592593131	0	0	45.40470011444594	-10.32764501515892	0	60.42115352204306	1.05454806681262	-5.098748592593131	0	0	-1.294965294581508	-4.585102439807026	16.23864068936097	2.604576970921912	15.24180061974639	-4.932664083729787	147.984100440616	1.110453962772607	0	0	0	-11.43793110940178	0	88.9283137302545	1.110453962772607	0	0
1.13	2.626455248053512	-3.044265618850317	-105.2291518596727	0	0.9399999998679526	0	45.40265899339222	-10.32353445703508	0	60.41907158883959	1.054511730223412	-5.097249437663898	0	0	45.40265899339222	-10.32353445703508	0	60.41907158883959	1.054511730223412	-5.097249437663898	0	0	-1.843004234786857	-5.131539052299742	13.52788973512724	1.369668842226915	15.99048790289111	-1.711622415270023	149.5873319061425	1.106191203044562	0	0	0	-11.44874315077264	0	88.93242698186455	1.106191203044562	0	0
1.14	3.453257471578433	-3.430481171728751	-105.8728147121135	0	0.9399999998679526	0	45.40108354771775	-10.32045157992353	0	60.41745233996267	1.054483468999101	-5.096135350709069	0	0	45.40108354771775	-10.32045157992353	0	60.41745233996267	1.054483468999101	-5.096135350709069	0	0	-1.496788902359404	-5.561071898222274	12.36705356430411	1.519074148292336	16.05604526634882	-0.5440511792380687	149.8849102373557	1.10288401094425	0	0	0	-11.45716144675569	0	88.9356181812163	1.10288401094425	0	0
1.15	3.441071503389487	-3.425503247113	-105.8802751198353	0	0.9399999998679526	0	45.40055499056491	-10.31899044783601	0	60.41701930377204	1.054475911091794	-5.095565493946289	0	0	45.40055499056491	-10.31899044783601	0	60.41701930377204	1.054475911091794	-5.095565493946289	0	0	-2.240396634628999	-5.055770175569211	9.404695526713379	1.273864563359521	15.51051728279146	3.124994238271351	150.0468626875553	1.10187098959414	0	0	0	-11.4595606938225	0	88.93659566904186	1.10187098959414	0	0
1.16	3.048998729825516	-4.041682645096066	-105.7634025744645	0	0.9399999998679526	0	45.39733312924977	-10.31288948938903	0	60.41367824028674	1.054417598533458	-5.093384654397488	0	0	45.39733312924977	-10.31288948938903	0	60.41367824028674	1.054417598533458	-5.093384654397488	0	0	-3.214475685307292	-4.920305867383043	5.65094487495983	1.683854759336761	15.27125771112257	6.587449525704996	149.0892197146967	1.095069079234293	0	0	0	-11.47694241761169	0	88.9431590183311	1.095069079234293	0	0
1.17	2.841890238167922	-4.806964223071744	-107.5520616879833	0	0.9399999998679526	0	45.39722482603332	-10.31259232263062	0	60.41358956874698	1.054416050923136	-5.093269030236616	0	0	45.39722482603332	-10.31259232263062	0	60.41358956874698	1.054416050923136	-5.093269030236616	0	0	-2.781513264357068	-5.191198772477772	6.320188994510351	1.446313231333126	15.7113956462546	7.619942622808309	148.3273071926713	1.094861192426618	0	0	0	-11.47743534179946	0	88.94335961316561	1.094861192426618	0	0
1.18	3.453714754639535	-4.201794374860952	-109.2106809150559	0	0.9399999998679526	0	45.39683934860956	-10.31155291340985	0	60.41327165766669	1.054410502328056	-5.092866765147707	0	0	45.39683934860956	-10.31155291340985	0	60.41327165766669	1.054410502328056	-5.092866765147707	0	0	-3.072724868511153	-5.637662170765074	6.84499902548932	3.282823936212334	15.30355330453095	9.111590256262504	147.6574489636847	1.094118813255701	0	0	0	-11.47919977072245	0	88.94407595226073	1.094118813255701	0	0
1.19	3.658287418349136	-4.180477055697599	-110.7867880092848	0	0.9399999998679526	0	45.39671243668092	-10.31120609791328	0	60.4131676380884	1.054408686843929	-5.092732022348967	0	0	45.39671243668092	-10.31120609791328	0	60.4131676380884	1.054408686843929	-5.092732022348967	0	0	-2.798590223673523	-5.902061172894114	8.444696479274761	4.266864266830418	15.98223806302854	8.506380424590207	146.6581321575543	1.093875038107357	0	0	0	-11.47977807775094	0	88.94431117660184	1.093875038107357	0	0
1.2	3.655690748909312	-4.195515074880957	-110.7775152441716	0	0.9399999998679526	0	45.39651938189977	-10.31067605668432	0	60.41301013687094	1.054405937929108	-5.092525965537622	0	0	45.39651938189977	-10.31067605668432	0	60.41301013687094	1.054405937929108	-5.092525965537622	0	0	-2.352959084575314	-6.496245260434591	7.803088695559635	5.067307086600874	16.62250692543873	8.417499610834012	144.7397277954386	1.093504838522245	0	0	0	-11.48065501299528	0	88.94466839081174	1.093504838522245	0	0
1.21	3.641053694769842	-4.19481283161161	-110.7694484454271	0	0.9399999998679526	0	45.39640248874705	-10.31035674802653	0	60.41291445328589	1.054404267935509	-5.092401984149006	0	0	45.39640248874705	-10.31035674802653	0	60.41291445328589	1.054404267935509	-5.092401984149006	0	0	-2.397922086851331	-5.388214232042374	6.63185515788149	4.656254183053498	15.64975328249101	9.688768394931028	144.6667385064154	1.093280377681326	0	0	0	-11.48118732083018	0	88.9448849783236	1.093280377681326	0	0
1.22	4.016780285951233	-5.39674049282141	-111.629595041266	0	0.9399999998679526	0	45.39623023990811	-10.30988595666873	0	60.41277358350003	1.054401809293929	-5.092219191233188	0	0	45.39623023990811	-10.30988595666873	0	60.41277358350003	1.054401809293929	-5.092219191233188	0	0	-3.272499298864237	-6.213182191661675	7.468246848272527	5.395428785754787	16.36152551051683	9.760730166830248	143.9941091443415	1.092949713621759	0	0	0	-11.48197129505022	0	88.94520404380017	1.092949713621759	0	0
1.23	4.003768421788292	-5.398284611514683	-111.6279308508055	0	0.9399999998679526	0	45.39605887717744	-10.3094190933585	0	60.41263322526034	1.054399359580514	-5.092038097255355	0	0	45.39605887717744	-10.3094190933585	0	60.41263322526034	1.054399359580514	-5.092038097255355	0	0	-3.857603741141594	-6.695920058879008	7.939028500593152	7.546397677501522	16.48224325672769	8.087309693996033	141.7930881951576	1.092620519974904	0	0	0	-11.48275220488625	0	88.94552169045151	1.092620519974904	0	0
1.24	3.392327342459345	-4.979544582616932	-112.5401828773981	0	0.9399999998679526	0	45.39587200404657	-10.30890985793018	0	60.41248029753118	1.054396690488123	-5.09184060425936	0	0	45.39587200404657	-10.30890985793018	0	60.41248029753118	1.054396690488123	-5.09184060425936	0	0	-3.742197435542458	-6.150740856460233	6.584324235481763	8.099722696788708	17.61421071282805	10.35934748488998	140.8299667215299	1.0922616181371	0	0	0	-11.48360339010432	0	88.9458680032284	1.0922616181371	0	0
1.25	3.581025515343383	-6.019146623261122	-111.5457805141778	0	0.9399999998679526	0	45.3957443552661	-10.30856359488576	0	60.41237551903301	1.054394861758344	-5.091706461341597	0	0	45.3957443552661	-10.30856359488576	0	60.41237551903301	1.054394861758344	-5.091706461341597	0	0	-4.197452402184865	-6.157695388333596	5.079368016081908	7.101680209469758	17.31563320567727	11.6585515897643	141.1219888508286	1.09201615347039	0	0	0	-11.48418614632429	0	88.94610485783976	1.09201615347039	0	0
1.26	2.803341075174979	-5.576899067053566	-110.9274065490834	0	0.9399999998679526	0	45.39325956644811	-10.30386703106837	0	60.40981426098723	1.054350159372452	-5.090030731404548	0	0	45.39325956644811	-10.30386703106837	0	60.40981426098723	1.054350159372452	-5.090030731404548	0	0	-3.9548861906677	-5.103743720437941	6.72680568322766	9.78684863770823	17.15836638857947	9.748725184945105	138.9169945124769	1.086772467388253	0	0	0	-11.49757986027853	0	88.95116463379729	1.086772467388253	0	0
1.27	3.405745163902179	-5.974545400450869	-109.9700017714324	0	0.9399999998679526	0	45.39315023061593	-10.30357272617422	0	60.40972464339519	1.054348595250403	-5.089917058440679	0	0	45.39315023061593	-10.30357272617422	0	60.40972464339519	1.054348595250403	-5.089917058440679	0	0	-4.187675653439953	-5.734157660451506	5.75016162051003	10.69797450021749	17.52224156976573	10.0332295467782	138.0531034675897	1.086562015158971	0	0	0	-11.49807975944025	0	88.9513677041039	1.086562015158971	0	0
1.28	3.239200547382437	-5.989699874319696	-108.4187819901401	0	0.9399999998679526	0	45.39301679280433	-10.30321369344977	0	60.4096153013103	1.054346686871011	-5.089778423395079	0	0	45.39301679280433	-10.30321369344977	0	60.4096153013103	1.054346686871011	-5.089778423395079	0	0	-4.41251183919467	-5.465811917831209	4.201724525652913	11.64567687607054	18.44994659821635	10.11234381141257	137.0026453952142	1.086305180050311	0	0	0	-11.49868979923762	0	88.95161553034181	1.086305180050311	0	0
1.29	2.454075423260903	-5.601164910168499	-107.8112839821878	0	0.9399999998679526	0	45.39278572017137	-10.30259023996953	0	60.40942652215325	1.054343392053162	-5.089537619850041	0	0	45.39278572017137	-10.30259023996953	0	60.40942652215325	1.054343392053162	-5.089537619850041	0	0	-4.966162335518095	-5.013327780853412	4.072644623824559	13.79648784919202	19.1285063195953	9.630217807793406	135.8053516469706	1.085860891722053	0	0	0	-11.49974410391425	0	88.95204423458162	1.085860891722053	0	0
1.3	3.074604602302234	-6.002242089696436	-106.8815995738661	0	0.9399999998679526	0	45.39263728638161	-10.30219137378488	0	60.4093049803512	1.054341270748537	-5.089383730252372	0	0	45.39263728638161	-10.30219137378488	0	60.4093049803512	1.054341270748537	-5.089383730252372	0	0	-5.124585712508432	-5.668849897130099	4.465644884909249	14.09544849864363	19.41109756517057	8.149261874293057	135.6946555054784	1.085575211937045	0	0	0	-11.50042256644132	0	88.95231989372655	1.085575211937045	0	0
1.31	2.666499251445929	-4.838622302615033	-105.9971473051286	0	0.9399999998679526	0	45.39239488745289	-10.30153998574592	0	60.40910669513422	1.054337810018642	-5.089132490582909	0	0	45.39239488745289	-10.30153998574592	0	60.40910669513422	1.054337810018642	-5.089132490582909	0	0	-4.064156472329383	-4.78179197649896	5.87239245161707	15.64419228242927	19.48563172359933	5.289635265528841	135.0751829497618	1.085108809503152	0	0	0	-11.50152992872228	0	88.95276993640233	1.085108809503152	0	0
1.32	2.878538768286489	-5.843424567860314	-104.9619105961557	0	0.9399999998679526	0	45.39219593490535	-10.30100548445203	0	60.40894404956297	1.05433497131791	-5.088926400228599	0	0	45.39219593490535	-10.30100548445203	0	60.40894404956297	1.05433497131791	-5.088926400228599	0	0	-5.076095905605722	-5.17743473276116	4.808153699743913	16.64821977147858	20.34840020003324	5.338069772168669	134.0818568631552	1.084726050637914	0	0	0	-11.50243857646061	0	88.95313926943093	1.084726050637914	0	0
